<?xml version="1.0" encoding="UTF-8"?>
<svg version="1.1" xmlns="http://www.w3.org/2000/svg" width="403" height="200">
<path d="M0 0 C0 0.66 0 1.32 0 2 C-8.31227432 6.76270853 -15.50519246 9.04521488 -25 10 C-37.70865496 11.29005906 -49.3453186 12.75712965 -59 22 C-59.86625 23.546875 -59.86625 23.546875 -60.75 25.125 C-63.88503352 29.13087616 -67.31314389 29.61138137 -72.09375 30.9921875 C-74.81986917 31.93753528 -76.29717652 32.7533558 -78.375 34.6875 C-81.33335521 37.29367006 -83.12625802 37.72330414 -87 38 C-84.90644588 40.09355412 -80.79735911 39.92897082 -77.9140625 40.375 C-77.10133881 40.50438965 -76.28861511 40.6337793 -75.45126343 40.76708984 C-72.84310297 41.18191855 -70.23413719 41.59136307 -67.625 42 C-65.02309376 42.40915912 -62.42139582 42.81950997 -59.82015991 43.23291016 C-58.19901001 43.49039905 -56.57745661 43.74536279 -54.95547485 43.99755859 C-51.86681468 44.48693149 -48.97274131 45.00908623 -46 46 C-46.46535156 45.608125 -46.93070312 45.21625 -47.41015625 44.8125 C-49.84472872 42.03696775 -50.22316705 38.90586001 -51.05859375 35.375 C-52.17974842 32.5465268 -53.45487085 31.58874592 -56 30 C-54.64120751 25.2442263 -52.20683334 22.45465899 -48 20 C-39.04129224 16.10117038 -29.33220458 15.00262834 -19.76098633 13.50195312 C-7.51998259 11.61656825 -7.51998259 11.61656825 3.48828125 6.25390625 C6 5 6 5 8.44921875 5.5 C11.57353507 7.33727024 14.18489401 9.52932931 16.8125 12 C17.33803467 12.49056885 17.86356934 12.9811377 18.4050293 13.48657227 C35.90327522 30.13307439 45.67692206 52.04376596 46.35302734 76.13305664 C46.46506018 88.52015441 44.37424425 99.33534867 40 111 C31.09 111 22.18 111 13 111 C13 120.9 13 130.8 13 141 C9.37 141 5.74 141 2 141 C2 131.1 2 121.2 2 111 C-8.56 111 -19.12 111 -30 111 C-30 112.32 -30 113.64 -30 115 C-28.98679687 115.17015625 -27.97359375 115.3403125 -26.9296875 115.515625 C-25.57799199 115.75968113 -24.22643662 116.00451432 -22.875 116.25 C-21.87726563 116.41435547 -21.87726563 116.41435547 -20.859375 116.58203125 C-16.14154999 117.46084179 -12.80810254 118.92110858 -9 122 C-7.75473521 125.73579437 -7.34828783 129.12634003 -8 133 C-9.69181755 136.20813536 -11.92588886 138.42982286 -15.1574707 140.14526367 C-18.87831161 141.26410452 -22.44348134 141.3054259 -26.29296875 141.30078125 C-27.08020828 141.30506638 -27.86744781 141.3093515 -28.67854309 141.31376648 C-30.33508342 141.31948942 -31.99164886 141.3200251 -33.64819336 141.31567383 C-36.18971994 141.31249723 -38.73010014 141.33605415 -41.27148438 141.36132812 C-42.88281103 141.36359959 -44.49414082 141.36430533 -46.10546875 141.36328125 C-46.86691696 141.372491 -47.62836517 141.38170074 -48.41288757 141.39118958 C-50.54760742 141.37231445 -50.54760742 141.37231445 -54 141 C-54.66 140.01 -55.32 139.02 -56 138 C-56.515625 138.515625 -57.03125 139.03125 -57.5625 139.5625 C-61.02356361 141.60364008 -63.17371017 140.90439578 -67 140 C-68.485 139.01 -68.485 139.01 -70 138 C-70.66 138.99 -71.32 139.98 -72 141 C-74.3828125 141.29296875 -74.3828125 141.29296875 -77.125 141.1875 C-78.03507812 141.16042969 -78.94515625 141.13335937 -79.8828125 141.10546875 C-80.58148438 141.07066406 -81.28015625 141.03585938 -82 141 C-81.39536206 136.26238235 -80.0308089 132.11863692 -78.19921875 127.73828125 C-77.78274834 126.72957222 -77.78274834 126.72957222 -77.35786438 125.70048523 C-76.77194808 124.28810865 -76.18263066 122.87713867 -75.59008789 121.4675293 C-74.68799931 119.31369215 -73.8055578 117.15247212 -72.92382812 114.99023438 C-72.35013879 113.61409063 -71.77530766 112.2384222 -71.19921875 110.86328125 C-70.93864182 110.21950027 -70.67806488 109.5757193 -70.40959167 108.91242981 C-68.85990899 105.28448791 -67.51466875 102.91101096 -64 101 C-61.3984375 101.0625 -61.3984375 101.0625 -59 102 C-57.6640625 103.6875 -57.6640625 103.6875 -56.625 106 C-56.22152344 106.886875 -55.81804687 107.77375 -55.40234375 108.6875 C-54.93957031 109.780625 -54.47679688 110.87375 -54 112 C-53.7023877 112.69480469 -53.40477539 113.38960938 -53.09814453 114.10546875 C-47 128.3846505 -47 128.3846505 -47 131 C-38.09 131 -29.18 131 -20 131 C-20.33 130.01 -20.66 129.02 -21 128 C-24.07964087 127.01226153 -27.12066577 126.3051219 -30.27734375 125.62695312 C-34.76290889 124.57385875 -37.672337 123.19630788 -41 120 C-42.74967397 116.50065205 -42.55189554 112.81834705 -42 109 C-39.68828753 105.02674418 -38.11557825 103.3973825 -33.77734375 101.85205078 C-27.16027596 100.362985 -20.30630435 100.75481587 -13.5625 100.8046875 C-12.07177928 100.80842353 -10.58105609 100.81126771 -9.09033203 100.81326294 C-5.19082712 100.82085297 -1.29147419 100.84046096 2.60797119 100.8626709 C6.59669947 100.88322978 10.58545261 100.89228601 14.57421875 100.90234375 C22.38288134 100.92371183 30.19141927 100.95779094 38 101 C39.83734226 83.70123668 40.56833047 66.68013279 35 50 C14.76993443 49.45452672 -6.31695086 49.27713754 -22 64 C-22.74636719 65.06476563 -23.49273437 66.12953125 -24.26171875 67.2265625 C-27 70 -27 70 -30.8125 70.4375 C-32.21133451 70.32400965 -33.60780541 70.1772351 -35 70 C-35.69867188 69.94199219 -36.39734375 69.88398437 -37.1171875 69.82421875 C-41.02917678 69.44778205 -44.49481232 68.80570275 -48 67 C-50.0326419 62.9347162 -49.17904475 58.24830408 -48 54 C-48.72993164 53.95101562 -49.45986328 53.90203125 -50.21191406 53.8515625 C-57.4945009 53.31124905 -64.56936136 52.30149812 -71.75 51 C-94.79608749 46.60146905 -94.79608749 46.60146905 -116.54296875 53.65234375 C-122.2044801 58.36511367 -125.02255421 62.66058245 -126 70 C-126.11824684 72.65917892 -126.1899436 75.27916462 -126.1875 77.9375 C-126.18814453 78.67025146 -126.18878906 79.40300293 -126.18945312 80.15795898 C-126.11959199 87.54498014 -125.1877203 94.71460852 -124 102 C-123.31897217 101.9592334 -122.63794434 101.9184668 -121.9362793 101.87646484 C-118.85387855 101.69819412 -115.77082758 101.53641156 -112.6875 101.375 C-111.0797168 101.27832031 -111.0797168 101.27832031 -109.43945312 101.1796875 C-108.41142578 101.128125 -107.38339844 101.0765625 -106.32421875 101.0234375 C-104.9024231 100.94488525 -104.9024231 100.94488525 -103.4519043 100.86474609 C-101 101 -101 101 -98 103 C-97.0168457 104.87939453 -97.0168457 104.87939453 -96.17578125 107.1328125 C-95.86962891 107.93847656 -95.56347656 108.74414062 -95.24804688 109.57421875 C-94.93931641 110.41597656 -94.63058594 111.25773437 -94.3125 112.125 C-93.99216797 112.97449219 -93.67183594 113.82398438 -93.34179688 114.69921875 C-92.55241917 116.79637145 -91.77225683 118.89649535 -91 121 C-90.40251953 119.69675781 -90.40251953 119.69675781 -89.79296875 118.3671875 C-89.26316406 117.21476562 -88.73335937 116.06234375 -88.1875 114.875 C-87.66542969 113.73804688 -87.14335938 112.60109375 -86.60546875 111.4296875 C-82.35974304 102.35974304 -82.35974304 102.35974304 -81 101 C-79.48071962 100.92820036 -77.95832518 100.91607993 -76.4375 100.9375 C-75.19806641 100.95103516 -75.19806641 100.95103516 -73.93359375 100.96484375 C-72.97646484 100.98224609 -72.97646484 100.98224609 -72 101 C-72.61075536 105.82092046 -74.03184855 110.0495314 -75.87109375 114.515625 C-76.15348404 115.21266541 -76.43587433 115.90970581 -76.7268219 116.62786865 C-77.3214776 118.0913493 -77.91918103 119.55359491 -78.51977539 121.01464844 C-79.43905233 123.2537811 -80.34612103 125.49758706 -81.25195312 127.7421875 C-81.83261423 129.16695994 -82.41397021 130.59144944 -82.99609375 132.015625 C-83.40244301 133.02184906 -83.40244301 133.02184906 -83.81700134 134.04840088 C-84.96627365 136.82727134 -85.85133 138.85133 -88 141 C-91.43188477 140.99584961 -91.43188477 140.99584961 -95 140 C-96.80444336 137.43969727 -96.80444336 137.43969727 -98.08984375 134.06640625 C-98.56357422 132.86048828 -99.03730469 131.65457031 -99.52539062 130.41210938 C-99.99641705 129.12902489 -100.46711643 127.8458203 -100.9375 126.5625 C-101.43300488 125.2822164 -101.93102586 124.00290357 -102.43164062 122.72460938 C-106 113.45479369 -106 113.45479369 -106 111 C-112.93 111 -119.86 111 -127 111 C-134.36085592 87.44526105 -136.10217816 62.78432084 -125 40 C-111.66466856 15.62409719 -90.4640282 -0.19475419 -64.04296875 -8.203125 C-42.18051064 -13.92833868 -19.96222617 -9.49075729 0 0 Z M-89 42 C-88.61872839 44.05200927 -88.61872839 44.05200927 -87 46 C-84.09311053 46.78622402 -81.45617941 47.30378553 -78.4921875 47.703125 C-77.23125778 47.89439972 -77.23125778 47.89439972 -75.94485474 48.08953857 C-73.25709728 48.49328419 -70.56647006 48.87187941 -67.875 49.25 C-66.05314126 49.51918602 -64.23152215 49.78999929 -62.41015625 50.0625 C-57.94266664 50.7272534 -53.47244324 51.36947332 -49 52 C-48.34 51.01 -47.68 50.02 -47 49 C-54.10329869 46.87538537 -61.2559692 45.62360735 -68.5625 44.375 C-69.87699376 44.14345972 -71.19144723 43.91169064 -72.50585938 43.6796875 C-73.76333984 43.463125 -75.02082031 43.2465625 -76.31640625 43.0234375 C-77.45537354 42.82669434 -78.59434082 42.62995117 -79.76782227 42.42724609 C-82.8894585 42.01461195 -85.85572034 41.9221139 -89 42 Z M-63 120 C-65.35910353 124.2637281 -65.35910353 124.2637281 -66 129 C-63.69 129 -61.38 129 -59 129 C-59.99 126.03 -60.98 123.06 -62 120 C-62.33 120 -62.66 120 -63 120 Z " fill="#4BB4E0" transform="translate(157,39)"/>
<path d="M0 0 C2.67892029 2.67892029 3.15637375 5.62156588 4.0625 9.1875 C4.23587891 9.83525391 4.40925781 10.48300781 4.58789062 11.15039062 C9.41608658 29.66772455 7.66682117 48.22181021 1 66 C-7.91 66 -16.82 66 -26 66 C-26 75.9 -26 85.8 -26 96 C-29.63 96 -33.26 96 -37 96 C-37 86.1 -37 76.2 -37 66 C-47.56 66 -58.12 66 -69 66 C-69 67.32 -69 68.64 -69 70 C-67.98679688 70.17015625 -66.97359375 70.3403125 -65.9296875 70.515625 C-64.57799199 70.75968113 -63.22643662 71.00451432 -61.875 71.25 C-61.20984375 71.35957031 -60.5446875 71.46914062 -59.859375 71.58203125 C-55.14154999 72.46084179 -51.80810254 73.92110858 -48 77 C-46.75473521 80.73579437 -46.34828783 84.12634003 -47 88 C-48.69181755 91.20813536 -50.92588886 93.42982286 -54.1574707 95.14526367 C-57.87831161 96.26410452 -61.44348134 96.3054259 -65.29296875 96.30078125 C-66.08020828 96.30506638 -66.86744781 96.3093515 -67.67854309 96.31376648 C-69.33508342 96.31948942 -70.99164886 96.3200251 -72.64819336 96.31567383 C-75.18971994 96.31249723 -77.73010014 96.33605415 -80.27148438 96.36132812 C-81.88281103 96.36359959 -83.49414082 96.36430533 -85.10546875 96.36328125 C-85.86691696 96.372491 -86.62836517 96.38170074 -87.41288757 96.39118958 C-89.54760742 96.37231445 -89.54760742 96.37231445 -93 96 C-93.66 95.01 -94.32 94.02 -95 93 C-95.515625 93.515625 -96.03125 94.03125 -96.5625 94.5625 C-100.02356361 96.60364008 -102.17371017 95.90439578 -106 95 C-106.99 94.34 -107.98 93.68 -109 93 C-109.66 93.99 -110.32 94.98 -111 96 C-113.3828125 96.29296875 -113.3828125 96.29296875 -116.125 96.1875 C-117.49011719 96.14689453 -117.49011719 96.14689453 -118.8828125 96.10546875 C-119.58148438 96.07066406 -120.28015625 96.03585938 -121 96 C-120.39536206 91.26238235 -119.0308089 87.11863692 -117.19921875 82.73828125 C-116.92157181 82.06580856 -116.64392487 81.39333588 -116.35786438 80.70048523 C-115.77194808 79.28810865 -115.18263066 77.87713867 -114.59008789 76.4675293 C-113.68799931 74.31369215 -112.8055578 72.15247212 -111.92382812 69.99023438 C-111.35013879 68.61409063 -110.77530766 67.2384222 -110.19921875 65.86328125 C-109.80835335 64.89760979 -109.80835335 64.89760979 -109.40959167 63.91242981 C-107.85990899 60.28448791 -106.51466875 57.91101096 -103 56 C-100.3984375 56.0625 -100.3984375 56.0625 -98 57 C-96.6640625 58.6875 -96.6640625 58.6875 -95.625 61 C-95.22152344 61.886875 -94.81804687 62.77375 -94.40234375 63.6875 C-93.93957031 64.780625 -93.47679688 65.87375 -93 67 C-92.7023877 67.69480469 -92.40477539 68.38960938 -92.09814453 69.10546875 C-86 83.3846505 -86 83.3846505 -86 86 C-77.09 86 -68.18 86 -59 86 C-59.33 85.01 -59.66 84.02 -60 83 C-63.07964087 82.01226153 -66.12066577 81.3051219 -69.27734375 80.62695312 C-73.76290889 79.57385875 -76.672337 78.19630788 -80 75 C-81.74967397 71.50065205 -81.55189554 67.81834705 -81 64 C-78.68828753 60.02674418 -77.11557825 58.3973825 -72.77734375 56.85205078 C-66.16027596 55.362985 -59.30630435 55.75481587 -52.5625 55.8046875 C-51.07177928 55.80842353 -49.58105609 55.81126771 -48.09033203 55.81326294 C-44.19082712 55.82085297 -40.29147419 55.84046096 -36.39202881 55.8626709 C-32.40330053 55.88322978 -28.41454739 55.89228601 -24.42578125 55.90234375 C-16.61711866 55.92371183 -8.80858073 55.95779094 -1 56 C0.85770209 38.5095469 1.25268477 21.9070791 -4 5 C-10.6 4.67 -17.2 4.34 -24 4 C-24 3.67 -24 3.34 -24 3 C-12.615 2.505 -12.615 2.505 -1 2 C-1.33 3.65 -1.66 5.3 -2 7 C-1.34 7 -0.68 7 0 7 C0 4.69 0 2.38 0 0 Z M-102 75 C-104.35910353 79.2637281 -104.35910353 79.2637281 -105 84 C-102.69 84 -100.38 84 -98 84 C-98.99 81.03 -99.98 78.06 -101 75 C-101.33 75 -101.66 75 -102 75 Z " fill="#66BEE3" transform="translate(196,84)"/>
<path d="M0 0 C1.125 3.75 1.125 3.75 0 6 C0.99 5.67 1.98 5.34 3 5 C3.33 5.99 3.66 6.98 4 8 C4.33 7.34 4.66 6.68 5 6 C5.66 6 6.32 6 7 6 C7 5.34 7 4.68 7 4 C7.66 4 8.32 4 9 4 C9.67578125 5.796875 9.67578125 5.796875 10 8 C8.70231052 9.86016921 7.17677218 11.26029463 5.54296875 12.828125 C1.78878615 18.11249341 1.66725314 24.78629875 1.75 31.0625 C1.75386719 31.78622803 1.75773437 32.50995605 1.76171875 33.25561523 C1.8767203 40.59734585 2.81950195 47.75890927 4 55 C4.68102783 54.9592334 5.36205566 54.9184668 6.0637207 54.87646484 C9.14612145 54.69819412 12.22917242 54.53641156 15.3125 54.375 C16.9202832 54.27832031 16.9202832 54.27832031 18.56054688 54.1796875 C19.58857422 54.128125 20.61660156 54.0765625 21.67578125 54.0234375 C23.0975769 53.94488525 23.0975769 53.94488525 24.5480957 53.86474609 C27 54 27 54 30 56 C30.9831543 57.87939453 30.9831543 57.87939453 31.82421875 60.1328125 C32.13037109 60.93847656 32.43652344 61.74414062 32.75195312 62.57421875 C33.06068359 63.41597656 33.36941406 64.25773437 33.6875 65.125 C34.00783203 65.97449219 34.32816406 66.82398438 34.65820312 67.69921875 C35.44758083 69.79637145 36.22774317 71.89649535 37 74 C37.59748047 72.69675781 37.59748047 72.69675781 38.20703125 71.3671875 C38.73683594 70.21476562 39.26664063 69.06234375 39.8125 67.875 C40.33457031 66.73804688 40.85664062 65.60109375 41.39453125 64.4296875 C45.64025696 55.35974304 45.64025696 55.35974304 47 54 C48.51928038 53.92820036 50.04167482 53.91607993 51.5625 53.9375 C52.38878906 53.94652344 53.21507812 53.95554688 54.06640625 53.96484375 C54.70449219 53.97644531 55.34257813 53.98804688 56 54 C55.38924464 58.82092046 53.96815145 63.0495314 52.12890625 67.515625 C51.84651596 68.21266541 51.56412567 68.90970581 51.2731781 69.62786865 C50.6785224 71.0913493 50.08081897 72.55359491 49.48022461 74.01464844 C48.56094767 76.2537811 47.65387897 78.49758706 46.74804688 80.7421875 C46.16738577 82.16695994 45.58602979 83.59144944 45.00390625 85.015625 C44.73300674 85.68644104 44.46210724 86.35725708 44.18299866 87.04840088 C43.03372635 89.82727134 42.14867 91.85133 40 94 C36.56811523 93.99584961 36.56811523 93.99584961 33 93 C31.19555664 90.43969727 31.19555664 90.43969727 29.91015625 87.06640625 C29.19956055 85.2575293 29.19956055 85.2575293 28.47460938 83.41210938 C28.00358295 82.12902489 27.53288357 80.8458203 27.0625 79.5625 C26.56699512 78.2822164 26.06897414 77.00290357 25.56835938 75.72460938 C22 66.45479369 22 66.45479369 22 64 C15.07 64 8.14 64 1 64 C-5.64194128 42.74578792 -7.60224129 21.35238206 0 0 Z " fill="#5DBBE2" transform="translate(29,86)"/>
<path d="M0 0 C0.33 1.32 0.66 2.64 1 4 C2.51980469 4.25523437 2.51980469 4.25523437 4.0703125 4.515625 C5.42200801 4.75968113 6.77356338 5.00451432 8.125 5.25 C8.79015625 5.35957031 9.4553125 5.46914062 10.140625 5.58203125 C14.85845001 6.46084179 18.19189746 7.92110858 22 11 C23.24300105 14.72900316 23.6711674 18.13349214 23 22 C21.26092412 25.02391552 19.16502678 27.41748661 16 29 C13.15570643 29.08691001 10.33620824 29.11553802 7.4921875 29.09765625 C6.23125778 29.09553383 6.23125778 29.09553383 4.94485474 29.09336853 C2.25486725 29.08776237 -0.43503759 29.07520886 -3.125 29.0625 C-4.94661338 29.05748579 -6.76822807 29.05292275 -8.58984375 29.04882812 C-13.05992777 29.03779094 -17.52994986 29.0205222 -22 29 C-22 27.68 -22 26.36 -22 25 C-21.01 25 -20.02 25 -19 25 C-19.33 24.01 -19.66 23.02 -20 22 C-20.12781786 19.32605036 -20.04391871 16.67904143 -20 14 C-18.62437146 15.28965176 -17.29233607 16.62689293 -16 18 C-16 18.66 -16 19.32 -16 20 C-7.09 20 1.82 20 11 20 C10.505 18.515 10.505 18.515 10 17 C6.92035913 16.01226153 3.87933423 15.3051219 0.72265625 14.62695312 C-3.76259912 13.57393148 -6.62461085 12.13335544 -10 9 C-9.67 8.34 -9.34 7.68 -9 7 C-8.01 7.33 -7.02 7.66 -6 8 C-2.3870391 6.02929405 -1.24762828 3.84685385 0 0 Z " fill="#64BEE3" transform="translate(126,150)"/>
<path d="M0 0 C1.125 3.75 1.125 3.75 0 6 C0.99 5.67 1.98 5.34 3 5 C3.33 5.99 3.66 6.98 4 8 C4.33 7.34 4.66 6.68 5 6 C5.66 6 6.32 6 7 6 C7 5.34 7 4.68 7 4 C7.66 4 8.32 4 9 4 C9.67578125 5.796875 9.67578125 5.796875 10 8 C8.70231052 9.86016921 7.17677218 11.26029463 5.54296875 12.828125 C1.71006935 18.22329479 1.69502266 24.93421489 1.8125 31.3125 C1.81894531 32.04654053 1.82539063 32.78058105 1.83203125 33.53686523 C1.91407656 39.38836255 2.29711654 45.18865999 3 51 C1.68 50.67 0.36 50.34 -1 50 C-0.01 51.32 0.98 52.64 2 54 C1.34 54 0.68 54 0 54 C-0.33 55.32 -0.66 56.64 -1 58 C-3.0220738 50.0007269 -4.60996537 42.24982342 -5 34 C-5.05285156 33.07960937 -5.10570313 32.15921875 -5.16015625 31.2109375 C-5.48817401 20.62879924 -3.54724336 9.96312701 0 0 Z " fill="#41AFDD" transform="translate(29,86)"/>
<path d="M0 0 C1.67542976 0.28604898 3.34385343 0.61781233 5 1 C5.33 3.31 5.66 5.62 6 8 C6.66 8 7.32 8 8 8 C8.12375 7.05125 8.2475 6.1025 8.375 5.125 C9 2 9 2 11 0 C13.125 0.375 13.125 0.375 15 1 C16.40454548 7.11980533 17.23268915 12.71739294 17 19 C15.125 18.875 15.125 18.875 13 18 C11.75 14.9375 11.75 14.9375 11 12 C10.34 13.98 9.68 15.96 9 18 C7.68 18 6.36 18 5 18 C4.34 16.02 3.68 14.04 3 12 C2.7525 12.969375 2.505 13.93875 2.25 14.9375 C1.8375 15.948125 1.425 16.95875 1 18 C-1.078125 18.69140625 -1.078125 18.69140625 -3 19 C-3.19946435 12.71687298 -2.84752843 7.04155282 -1 1 C-0.67 0.67 -0.34 0.34 0 0 Z " fill="#989696" transform="translate(238,102)"/>
<path d="M0 0 C5 0 5 0 6.80078125 1.75 C7.29964844 2.4925 7.79851562 3.235 8.3125 4 C8.82425781 4.7425 9.33601563 5.485 9.86328125 6.25 C10.23839844 6.8275 10.61351562 7.405 11 8 C11.33 5.36 11.66 2.72 12 0 C13.65 0 15.3 0 17 0 C17 5.94 17 11.88 17 18 C12 18 12 18 10.19921875 16.25 C9.70035156 15.5075 9.20148438 14.765 8.6875 14 C8.17574219 13.2575 7.66398437 12.515 7.13671875 11.75 C6.76160156 11.1725 6.38648438 10.595 6 10 C5.67 12.64 5.34 15.28 5 18 C3.35 18 1.7 18 0 18 C0 12.06 0 6.12 0 0 Z " fill="#DDDDDD" transform="translate(295,131)"/>
<path d="M0 0 C2.25 0 2.25 0 5 1 C6.92590633 3.17643073 8.48205639 5.52607489 10 8 C10.33 5.69 10.66 3.38 11 1 C12.9375 0.4375 12.9375 0.4375 15 0 C16 1 16 1 16.09765625 4.81640625 C16.09098089 6.39846682 16.07901875 7.98051159 16.0625 9.5625 C16.05798828 10.36880859 16.05347656 11.17511719 16.04882812 12.00585938 C16.03700518 14.00393756 16.01906914 16.00197783 16 18 C14.68 18.33 13.36 18.66 12 19 C11.01830524 17.87720538 10.03972702 16.75168527 9.0625 15.625 C8.51722656 14.99851562 7.97195313 14.37203125 7.41015625 13.7265625 C6 12 6 12 5 10 C4.67 12.64 4.34 15.28 4 18 C3.01 18.33 2.02 18.66 1 19 C0.34 18.67 -0.32 18.34 -1 18 C-1.02684312 15.18743719 -1.04676188 12.37512759 -1.0625 9.5625 C-1.07087891 8.76005859 -1.07925781 7.95761719 -1.08789062 7.13085938 C-1.0965143 5.08704779 -1.0522815 3.04316098 -1 1 C-0.67 0.67 -0.34 0.34 0 0 Z " fill="#A7A5A5" transform="translate(343,102)"/>
<path d="M0 0 C5 0 5 0 6.80078125 1.75 C7.29964844 2.4925 7.79851562 3.235 8.3125 4 C8.82425781 4.7425 9.33601562 5.485 9.86328125 6.25 C10.23839844 6.8275 10.61351562 7.405 11 8 C11.33 5.36 11.66 2.72 12 0 C13.65 0.33 15.3 0.66 17 1 C17 6.28 17 11.56 17 17 C15.35 17.33 13.7 17.66 12 18 C10.02 15.36 8.04 12.72 6 10 C5.67 12.64 5.34 15.28 5 18 C3.35 18 1.7 18 0 18 C0 12.06 0 6.12 0 0 Z " fill="#A3A1A0" transform="translate(234,74)"/>
<path d="M0 0 C5 0 5 0 6.58203125 1.53125 C6.98808594 2.1809375 7.39414062 2.830625 7.8125 3.5 C8.23144531 4.1496875 8.65039062 4.799375 9.08203125 5.46875 C9.38496094 5.9740625 9.68789063 6.479375 10 7 C10.33 4.69 10.66 2.38 11 0 C12.65 0 14.3 0 16 0 C16 5.94 16 11.88 16 18 C11 18 11 18 9.41796875 16.46875 C9.01191406 15.8190625 8.60585938 15.169375 8.1875 14.5 C7.55908203 13.52546875 7.55908203 13.52546875 6.91796875 12.53125 C6.61503906 12.0259375 6.31210937 11.520625 6 11 C5.67 13.31 5.34 15.62 5 18 C3.35 18 1.7 18 0 18 C0 12.06 0 6.12 0 0 Z " fill="#A5A4A3" transform="translate(270,131)"/>
<path d="M0 0 C2.4375 1.5 2.4375 1.5 4 3 C3.34 4.32 2.68 5.64 2 7 C1.071875 6.62875 0.14375 6.2575 -0.8125 5.875 C-1.864375 5.58625 -2.91625 5.2975 -4 5 C-4.99 5.66 -5.98 6.32 -7 7 C-6.67 8.65 -6.34 10.3 -6 12 C-5.34 12 -4.68 12 -4 12 C-4 10.68 -4 9.36 -4 8 C-1.03 8 1.94 8 5 8 C4.51834131 14.38197767 4.51834131 14.38197767 2.375 16.9375 C-0.99002791 18.44290722 -3.35037432 18.44819965 -7 18 C-9.95473023 16.45840162 -11.52908229 15.31912036 -12.66796875 12.12890625 C-13.41605771 8.21069776 -13.33289313 6.53951646 -11.1875 3.0625 C-7.51339181 -0.40165915 -4.99882811 -0.34474677 0 0 Z " fill="#898786" transform="translate(326,131)"/>
<path d="M0 0 C2.96326994 2.10548127 3.83222327 3.47429959 4.9375 6.9375 C5.01401228 10.68660183 4.3485228 12.10348854 2 15 C-0.85074644 17.31141604 -2.3139451 18 -6 18 C-9.87725186 16.70758271 -11.57146618 15.2856634 -14 12 C-14.625 8.5 -14.625 8.5 -14 5 C-9.42918794 -0.53308828 -6.99574756 -1.56801238 0 0 Z M-9 6 C-9.33333333 8.5 -9.33333333 8.5 -9 11 C-7.16734675 13.26839983 -7.16734675 13.26839983 -4.4375 13.1875 C-2.05310277 13.27003323 -2.05310277 13.27003323 -1 12 C-0.83333333 8.5 -0.83333333 8.5 -1 5 C-2.05310277 3.72996677 -2.05310277 3.72996677 -4.4375 3.8125 C-7.16734675 3.73160017 -7.16734675 3.73160017 -9 6 Z " fill="#9C9A99" transform="translate(336,103)"/>
<path d="M0 0 C1.65 0 3.3 0 5 0 C5 1.98 5 3.96 5 6 C6.65 6 8.3 6 10 6 C10 4.02 10 2.04 10 0 C11.65 0 13.3 0 15 0 C15 5.94 15 11.88 15 18 C13.35 18 11.7 18 10 18 C10 15.69 10 13.38 10 11 C8.35 11 6.7 11 5 11 C5 13.31 5 15.62 5 18 C3.35 18 1.7 18 0 18 C0 12.06 0 6.12 0 0 Z " fill="#9A9797" transform="translate(310,74)"/>
<path d="M0 0 C2.67892029 2.67892029 3.15637375 5.62156588 4.0625 9.1875 C4.23587891 9.83525391 4.40925781 10.48300781 4.58789062 11.15039062 C6.59046351 18.83075637 7.14043899 26.05367153 7.0625 33.9375 C7.05798828 34.81212891 7.05347656 35.68675781 7.04882812 36.58789062 C7.03714834 38.72529047 7.01921689 40.86265463 7 43 C6.67 43 6.34 43 6 43 C6 37.39 6 31.78 6 26 C5.34 26 4.68 26 4 26 C3.34 32.27 2.68 38.54 2 45 C1.67 45 1.34 45 1 45 C0.9906543 44.35675781 0.98130859 43.71351562 0.97167969 43.05078125 C0.72948124 29.73461546 -0.18884614 17.78580651 -4 5 C-10.6 4.67 -17.2 4.34 -24 4 C-24 3.67 -24 3.34 -24 3 C-16.41 2.67 -8.82 2.34 -1 2 C-1.33 3.65 -1.66 5.3 -2 7 C-1.34 7 -0.68 7 0 7 C0 4.69 0 2.38 0 0 Z " fill="#6AC0E4" transform="translate(196,84)"/>
<path d="M0 0 C2.475 0.495 2.475 0.495 5 1 C5.33 4.96 5.66 8.92 6 13 C6.99 13 7.98 13 9 13 C9.33 8.71 9.66 4.42 10 0 C11.65 0.33 13.3 0.66 15 1 C15.08160748 2.89510699 15.13946459 4.79124504 15.1875 6.6875 C15.22230469 7.74324219 15.25710938 8.79898438 15.29296875 9.88671875 C14.96062992 13.4183727 14.17578303 15.21899916 12 18 C8.625 19.0625 8.625 19.0625 5 19 C2.29296875 17.48046875 2.29296875 17.48046875 0 15 C-0.37398847 12.18760674 -0.48293015 10.02407845 -0.3125 7.25 C-0.27866211 6.20392578 -0.27866211 6.20392578 -0.24414062 5.13671875 C-0.18547048 3.42355065 -0.09579256 1.71149377 0 0 Z " fill="#888685" transform="translate(257,102)"/>
<path d="M0 0 C8 0 8 0 10.5 1.5 C10.995 1.995 11.49 2.49 12 3 C11.835 4.093125 11.67 5.18625 11.5 6.3125 C10.85533282 11.06692049 11.11550862 13.64211368 13 18 C10.6875 18.25 10.6875 18.25 8 18 C6.1875 16 6.1875 16 5 14 C4.67 15.32 4.34 16.64 4 18 C2.68 18 1.36 18 0 18 C0 12.06 0 6.12 0 0 Z M4 4 C4 4.99 4 5.98 4 7 C4.99 7 5.98 7 7 7 C6.67 6.01 6.34 5.02 6 4 C5.34 4 4.68 4 4 4 Z " fill="#9A9898" transform="translate(229,131)"/>
<path d="M0 0 C2.29296875 0.0703125 2.29296875 0.0703125 5 1 C6.38742899 3.35351294 7.35984186 5.35636291 8.3125 7.875 C8.57611328 8.51308594 8.83972656 9.15117188 9.11132812 9.80859375 C10.26722414 12.68482331 11 14.87529944 11 18 C9.35 18 7.7 18 6 18 C6 17.01 6 16.02 6 15 C3.69 15 1.38 15 -1 15 C-1.33 15.99 -1.66 16.98 -2 18 C-3.65 18 -5.3 18 -7 18 C-5.06375702 11.79522136 -2.74390859 5.89174281 0 0 Z M2 8 C1.67 8.66 1.34 9.32 1 10 C1.66 10 2.32 10 3 10 C2.67 9.34 2.34 8.68 2 8 Z " fill="#B2B1B0" transform="translate(366,74)"/>
<path d="M0 0 C1.32 0 2.64 0 4 0 C5.17112946 2.62309099 6.33705964 5.24828142 7.5 7.875 C7.83386719 8.62136719 8.16773438 9.36773437 8.51171875 10.13671875 C8.98544922 11.20986328 8.98544922 11.20986328 9.46875 12.3046875 C9.90864258 13.2944458 9.90864258 13.2944458 10.35742188 14.30419922 C11 16 11 16 11 18 C9.35 18 7.7 18 6 18 C5.67 17.01 5.34 16.02 5 15 C2.69 15 0.38 15 -2 15 C-2 15.99 -2 16.98 -2 18 C-3.65 18 -5.3 18 -7 18 C-6.34422814 13.97594538 -5.08843632 10.49944851 -3.5 6.75 C-3.0565625 5.69296875 -2.613125 4.6359375 -2.15625 3.546875 C-1 1 -1 1 0 0 Z M1 8 C1 8.66 1 9.32 1 10 C1.66 9.67 2.32 9.34 3 9 C2.34 8.67 1.68 8.34 1 8 Z " fill="#918E8E" transform="translate(222,74)"/>
<path d="M0 0 C1.32 0 2.64 0 4 0 C5.17112946 2.62309099 6.33705964 5.24828142 7.5 7.875 C7.83386719 8.62136719 8.16773438 9.36773437 8.51171875 10.13671875 C8.98544922 11.20986328 8.98544922 11.20986328 9.46875 12.3046875 C9.90864258 13.2944458 9.90864258 13.2944458 10.35742188 14.30419922 C11 16 11 16 11 18 C9.35 18 7.7 18 6 18 C5.67 17.34 5.34 16.68 5 16 C3.02 16 1.04 16 -1 16 C-1.33 16.66 -1.66 17.32 -2 18 C-3.65 18 -5.3 18 -7 18 C-5.06375702 11.79522136 -2.74390859 5.89174281 0 0 Z M1 8 C1 8.66 1 9.32 1 10 C1.66 9.67 2.32 9.34 3 9 C2.34 8.67 1.68 8.34 1 8 Z " fill="#8F8D8D" transform="translate(259,74)"/>
<path d="M0 0 C3 1 3 1 3.9831543 2.67407227 C4.3994812 3.73452759 4.3994812 3.73452759 4.82421875 4.81640625 C5.13037109 5.58017578 5.43652344 6.34394531 5.75195312 7.13085938 C6.06068359 7.93330078 6.36941406 8.73574219 6.6875 9.5625 C7.00783203 10.36880859 7.32816406 11.17511719 7.65820312 12.00585938 C8.44877255 13.99998225 9.225685 15.99950948 10 18 C8.68 18.33 7.36 18.66 6 19 C5.34 17.68 4.68 16.36 4 15 C1.69 15 -0.62 15 -3 15 C-3 15.99 -3 16.98 -3 18 C-4.65 18.33 -6.3 18.66 -8 19 C-7.40892568 14.57026322 -6.29054977 10.80507852 -4.5625 6.6875 C-4.13066406 5.63949219 -3.69882812 4.59148437 -3.25390625 3.51171875 C-2 1 -2 1 0 0 Z M0 8 C-0.33 8.99 -0.66 9.98 -1 11 C-0.01 10.67 0.98 10.34 2 10 C1.34 9.34 0.68 8.68 0 8 Z " fill="#959292" transform="translate(293,102)"/>
<path d="M0 0 C2.29296875 0.0703125 2.29296875 0.0703125 5 1 C6.38742899 3.35351294 7.35984186 5.35636291 8.3125 7.875 C8.57611328 8.51308594 8.83972656 9.15117187 9.11132812 9.80859375 C10.26722414 12.68482331 11 14.87529944 11 18 C9.35 17.67 7.7 17.34 6 17 C6 16.34 6 15.68 6 15 C3.69 15 1.38 15 -1 15 C-1.33 15.99 -1.66 16.98 -2 18 C-3.32 18 -4.64 18 -6 18 C-5.41347648 13.51006131 -4.2356462 9.77456816 -2.4375 5.625 C-1.98246094 4.56539062 -1.52742187 3.50578125 -1.05859375 2.4140625 C-0.70925781 1.61742187 -0.35992187 0.82078125 0 0 Z M2 8 C1.67 8.99 1.34 9.98 1 11 C1.99 10.67 2.98 10.34 4 10 C3.34 9.34 2.68 8.68 2 8 Z " fill="#989695" transform="translate(250,131)"/>
<path d="M0 0 C3.34543994 1.04726815 4.01339514 2.02506981 5.703125 5.1875 C6.23248618 6.45267321 6.74773178 7.72382872 7.25 9 C7.518125 9.64195313 7.78625 10.28390625 8.0625 10.9453125 C10 15.67044005 10 15.67044005 10 18 C8.35 18 6.7 18 5 18 C4.67 17.01 4.34 16.02 4 15 C1.02934491 15.34227572 1.02934491 15.34227572 -2 16 C-2.33 16.66 -2.66 17.32 -3 18 C-4.65 18 -6.3 18 -8 18 C-3.6 3.6 -3.6 3.6 0 0 Z M0 9 C0 9.66 0 10.32 0 11 C0.66 11 1.32 11 2 11 C2 10.34 2 9.68 2 9 C1.34 9 0.68 9 0 9 Z " fill="#9B9999" transform="translate(258,45)"/>
<path d="M0 0 C3.63 0 7.26 0 11 0 C10.67 1.65 10.34 3.3 10 5 C8.35 5 6.7 5 5 5 C5 5.66 5 6.32 5 7 C6.98 7 8.96 7 11 7 C11 8.32 11 9.64 11 11 C9.02 11 7.04 11 5 11 C5 11.99 5 12.98 5 14 C6.98 14 8.96 14 11 14 C11 15.32 11 16.64 11 18 C7.37 18 3.74 18 0 18 C0 12.06 0 6.12 0 0 Z " fill="#999797" transform="translate(271,74)"/>
<path d="M0 0 C3.63 0 7.26 0 11 0 C10.67 1.65 10.34 3.3 10 5 C8.35 5 6.7 5 5 5 C5 5.66 5 6.32 5 7 C6.98 7 8.96 7 11 7 C11 8.32 11 9.64 11 11 C9.02 11 7.04 11 5 11 C5 11.99 5 12.98 5 14 C6.98 14 8.96 14 11 14 C11 15.32 11 16.64 11 18 C7.37 18 3.74 18 0 18 C0 12.06 0 6.12 0 0 Z " fill="#B6B5B4" transform="translate(327,74)"/>
<path d="M0 0 C2.35546875 0.24609375 2.35546875 0.24609375 5 1 C6.36328125 2.84765625 6.36328125 2.84765625 7.3125 5.0625 C7.63863281 5.79597656 7.96476563 6.52945313 8.30078125 7.28515625 C8.53152344 7.85105469 8.76226562 8.41695312 9 9 C9.36351562 8.15115234 9.36351562 8.15115234 9.734375 7.28515625 C10.06953125 6.55167969 10.4046875 5.81820312 10.75 5.0625 C11.07484375 4.33160156 11.3996875 3.60070313 11.734375 2.84765625 C13 1 13 1 15.140625 0.24609375 C16.06101563 0.12427734 16.06101563 0.12427734 17 0 C18 2 18 2 16.9609375 5.44140625 C16.44104964 6.81844256 15.91198589 8.19204076 15.375 9.5625 C15.12621094 10.26052734 14.87742188 10.95855469 14.62109375 11.67773438 C13.8359375 13.69140625 13.8359375 13.69140625 12 17 C9.2890625 17.96484375 9.2890625 17.96484375 7 18 C3.85180745 12.13784836 1.73624758 6.4188547 0 0 Z " fill="#7B7878" transform="translate(214,45)"/>
<path d="M0 0 C-0.33 1.32 -0.66 2.64 -1 4 C-2.32 4.33 -3.64 4.66 -5 5 C-4.195625 5.37125 -3.39125 5.7425 -2.5625 6.125 C0 8 0 8 0.8125 11.1875 C0.874375 12.115625 0.93625 13.04375 1 14 C-1.1875 16.0625 -1.1875 16.0625 -4 18 C-6.77287249 17.80654378 -8.53085554 17.23457223 -11 16 C-10.67 14.68 -10.34 13.36 -10 12 C-7.03 12.495 -7.03 12.495 -4 13 C-5.37790293 10.24419414 -7.37149993 9.51138754 -10 8 C-11 7 -11 7 -11.3125 4.625 C-11 2 -11 2 -9.4375 0.125 C-6.03118195 -1.44714679 -3.59718087 -0.76094211 0 0 Z " fill="#A2A0A0" transform="translate(226,103)"/>
<path d="M0 0 C0.66 0.33 1.32 0.66 2 1 C1.34 2.32 0.68 3.64 0 5 C-1.32 4.67 -2.64 4.34 -4 4 C-3.5875 4.4125 -3.175 4.825 -2.75 5.25 C-2.1725 5.8275 -1.595 6.405 -1 7 C0.11375 7.928125 0.11375 7.928125 1.25 8.875 C3 11 3 11 2.9375 13.625 C2 16 2 16 -1 18 C-5.07490752 18.33957563 -6.53001271 18.31332486 -10 16 C-9.34 14.68 -8.68 13.36 -8 12 C-6.35 12 -4.7 12 -3 12 C-4.98 10.68 -6.96 9.36 -9 8 C-8.74438677 5.6568787 -8.40729228 3.32156597 -8 1 C-5.26094655 -0.36952673 -3.02912668 -0.12621361 0 0 Z " fill="#7E7C7B" transform="translate(293,74)"/>
<path d="M0 0 C0.66 0.33 1.32 0.66 2 1 C1.34 2.32 0.68 3.64 0 5 C-1.32 4.67 -2.64 4.34 -4 4 C-3.5875 4.4125 -3.175 4.825 -2.75 5.25 C-0.83333333 7.16666667 1.08333333 9.08333333 3 11 C1.92598892 13.91517292 1.22189824 15.77810176 -1 18 C-5.05261287 18.34490322 -6.54754176 18.30163882 -10 16 C-9.34 14.68 -8.68 13.36 -8 12 C-6.35 12 -4.7 12 -3 12 C-3.99 11.46375 -4.98 10.9275 -6 10.375 C-9 8 -9 8 -9.5625 4.875 C-9.376875 3.92625 -9.19125 2.9775 -9 2 C-5.54337669 -0.30441554 -4.05142119 -0.25860135 0 0 Z " fill="#8D8B8A" transform="translate(349,74)"/>
<path d="M0 0 C2.62386487 3.06117568 3 3.73173127 3 8 C11.58 8 20.16 8 29 8 C29 8.33 29 8.66 29 9 C23.06 9.33 17.12 9.66 11 10 C16.94 10.33 22.88 10.66 29 11 C29 11.33 29 11.66 29 12 C21.08 12.33 13.16 12.66 5 13 C17.87 13.495 17.87 13.495 31 14 C31 14.33 31 14.66 31 15 C20.11 15 9.22 15 -2 15 C-2 13.68 -2 12.36 -2 11 C-1.01 11 -0.02 11 1 11 C0.67 10.01 0.34 9.02 0 8 C-0.12781786 5.32605036 -0.04391871 2.67904143 0 0 Z " fill="#3FB0DC" transform="translate(106,164)"/>
<path d="M0 0 C1 4 1 4 0 6 C0.99 5.67 1.98 5.34 3 5 C3.33 5.99 3.66 6.98 4 8 C4.33 7.34 4.66 6.68 5 6 C5.66 6 6.32 6 7 6 C7 5.34 7 4.68 7 4 C7.66 4 8.32 4 9 4 C9.67578125 5.796875 9.67578125 5.796875 10 8 C8.70231052 9.86016921 7.17677218 11.26029463 5.54296875 12.828125 C1.71006935 18.22329479 1.69502266 24.93421489 1.8125 31.3125 C1.81894531 32.04654053 1.82539063 32.78058105 1.83203125 33.53686523 C1.91407656 39.38836255 2.29711654 45.18865999 3 51 C1.68 50.67 0.36 50.34 -1 50 C-0.01 51.32 0.98 52.64 2 54 C1.34 54 0.68 54 0 54 C-0.33 55.32 -0.66 56.64 -1 58 C-3.28571429 49.57142857 -3.28571429 49.57142857 -3 45 C-2.34 45.99 -1.68 46.98 -1 48 C-0.02463891 42.36119372 0.08220284 36.96309727 0 31.25 C-0.05757112 24.10856406 0.08861648 17.09577169 1 10 C0.01 9.67 -0.98 9.34 -2 9 C-1.34 6.03 -0.68 3.06 0 0 Z " fill="#72C3E5" transform="translate(29,86)"/>
<path d="M0 0 C3.96 0 7.92 0 12 0 C12 1.65 12 3.3 12 5 C10.68 5 9.36 5 8 5 C8 9.62 8 14.24 8 19 C6.35 18.67 4.7 18.34 3 18 C3 13.71 3 9.42 3 5 C1.68 5 0.36 5 -1 5 C-0.67 3.35 -0.34 1.7 0 0 Z " fill="#9F9D9C" transform="translate(302,102)"/>
<path d="M0 0 C4.29 0 8.58 0 13 0 C13 1.65 13 3.3 13 5 C11.68 5 10.36 5 9 5 C9 9.29 9 13.58 9 18 C7.35 18 5.7 18 4 18 C4 13.71 4 9.42 4 5 C2.68 5 1.36 5 0 5 C0 3.35 0 1.7 0 0 Z " fill="#9D9B9B" transform="translate(214,131)"/>
<path d="M0 0 C4.29 0 8.58 0 13 0 C13 1.65 13 3.3 13 5 C11.68 5 10.36 5 9 5 C9 9.29 9 13.58 9 18 C7.35 18 5.7 18 4 18 C4 13.71 4 9.42 4 5 C2.68 5 1.36 5 0 5 C0 3.35 0 1.7 0 0 Z " fill="#9D9B9B" transform="translate(296,74)"/>
<path d="M0 0 C0.66 0 1.32 0 2 0 C2.08849232 3.77068057 2.14088454 7.54108765 2.1875 11.3125 C2.22520508 12.8912793 2.22520508 12.8912793 2.26367188 14.50195312 C2.33106579 21.80296086 1.29669107 28.0702245 -1 35 C-1.33 35 -1.66 35 -2 35 C-2.33 32.69 -2.66 30.38 -3 28 C-3.66 28.33 -4.32 28.66 -5 29 C-4.63335248 24.74495907 -4.21703038 20.73247755 -3 16.625 C-1.86506697 12.51086778 -1.53305835 8.60137356 -1.24609375 4.35546875 C-1 2 -1 2 0 0 Z " fill="#63BDE2" transform="translate(200,110)"/>
<path d="M0 0 C0.66 0.66 1.32 1.32 2 2 C4.82073241 2.60778109 7.58924174 3.10920516 10.4375 3.54296875 C11.6913147 3.74204582 11.6913147 3.74204582 12.97045898 3.94514465 C14.73847268 4.22383621 16.50713425 4.49844356 18.27636719 4.76928711 C20.99078523 5.18608508 23.7023975 5.61842505 26.4140625 6.05273438 C28.13006271 6.32124484 29.8462043 6.58885359 31.5625 6.85546875 C32.37710693 6.9855986 33.19171387 7.11572845 34.03100586 7.24980164 C38.11795149 8.04547928 38.11795149 8.04547928 42 7 C41.67 8.32 41.34 9.64 41 11 C32.87449262 10.45199018 24.95139663 9.43346433 16.9375 8 C9.29971103 6.63910281 1.7395048 5.57829899 -6 5 C-6 4.67 -6 4.34 -6 4 C-4.02 4 -2.04 4 0 4 C0 2.68 0 1.36 0 0 Z " fill="#BEE0ED" transform="translate(68,82)"/>
<path d="M0 0 C0.8765625 0.17015625 1.753125 0.3403125 2.65625 0.515625 C9.19349036 1.76460995 15.72810978 2.96921299 22.30078125 4.01953125 C23.91533203 4.27911621 23.91533203 4.27911621 25.5625 4.54394531 C27.71125074 4.88678986 29.86099238 5.22348647 32.01171875 5.55371094 C33.00429687 5.71258789 33.996875 5.87146484 35.01953125 6.03515625 C36.35141479 6.24217163 36.35141479 6.24217163 37.71020508 6.45336914 C40 7 40 7 43 9 C35.56731401 12.71634299 21.55467785 7.83763567 13.75 6.4375 C12.40763884 6.20067957 11.06519122 5.96434872 9.72265625 5.72851562 C6.48089221 5.15712556 3.24007618 4.58087103 0 4 C0 2.68 0 1.36 0 0 Z " fill="#B4DCEB" transform="translate(68,77)"/>
<path d="M0 0 C0.33 1.32 0.66 2.64 1 4 C4.63 4.66 8.26 5.32 12 6 C12 6.66 12 7.32 12 8 C9.36 8 6.72 8 4 8 C3.67 9.32 3.34 10.64 3 12 C4.32 12.99 5.64 13.98 7 15 C0.58716046 14.74652808 -4.10697751 14.37796749 -9 10 C-9 9.01 -9 8.02 -9 7 C-8.01 7.33 -7.02 7.66 -6 8 C-2.3870391 6.02929405 -1.24762828 3.84685385 0 0 Z " fill="#65BEE3" transform="translate(126,150)"/>
<path d="M0 0 C1.98 0.495 1.98 0.495 4 1 C4 5.29 4 9.58 4 14 C5.65 14 7.3 14 9 14 C8.67 15.65 8.34 17.3 8 19 C1.84765625 19.09765625 1.84765625 19.09765625 0 19 C-1.8855253 17.1144747 -1.13246689 14.42231169 -1.13671875 11.91796875 C-1.13285156 11.12003906 -1.12898438 10.32210937 -1.125 9.5 C-1.12886719 8.70207031 -1.13273437 7.90414062 -1.13671875 7.08203125 C-1.12660767 1.12660767 -1.12660767 1.12660767 0 0 Z " fill="#D9D9D9" transform="translate(275,102)"/>
<path d="M0 0 C3.5 -0.375 3.5 -0.375 7 0 C9.78637633 4.1795645 8.79562512 6.14668677 8 11 C1.375 12.25 1.375 12.25 -2 10 C-2.39507893 5.65413172 -2.45331002 3.67996503 0 0 Z " fill="#5EBBE1" transform="translate(91,168)"/>
<path d="M0 0 C3.96 0 7.92 0 12 0 C12 1.65 12 3.3 12 5 C10.68 5 9.36 5 8 5 C8 9.29 8 13.58 8 18 C6.68 18 5.36 18 4 18 C4 13.71 4 9.42 4 5 C2.68 5 1.36 5 0 5 C0 3.35 0 1.7 0 0 Z " fill="#B2B1B0" transform="translate(239,45)"/>
<path d="M0 0 C0.66 -0.33 1.32 -0.66 2 -1 C1.125 3.75 1.125 3.75 0 6 C-0.66 6 -1.32 6 -2 6 C-2 7.98 -2 9.96 -2 12 C-5.3 12 -8.6 12 -12 12 C-11.75 9.1875 -11.75 9.1875 -11 6 C-8.9375 4.3125 -8.9375 4.3125 -7 3 C-7 2.01 -7 1.02 -7 0 C-3.7807732 -1.0730756 -3.09793558 -0.79946725 0 0 Z " fill="#59BAE2" transform="translate(87,168)"/>
<path d="M0 0 C1.32 0 2.64 0 4 0 C4 4.62 4 9.24 4 14 C5.98 14 7.96 14 10 14 C10 15.32 10 16.64 10 18 C6.7 18 3.4 18 0 18 C0 12.06 0 6.12 0 0 Z " fill="#ACABAA" transform="translate(270,45)"/>
<path d="M0 0 C2.4375 1.5 2.4375 1.5 4 3 C3.34 4.32 2.68 5.64 2 7 C1.071875 6.62875 0.14375 6.2575 -0.8125 5.875 C-1.864375 5.58625 -2.91625 5.2975 -4 5 C-7.0109362 7.0072908 -7.63016497 7.83884224 -9 11 C-9.66 10.34 -10.32 9.68 -11 9 C-11.66 9.66 -12.32 10.32 -13 11 C-12.76683515 6.95847594 -12.5771041 4.66197236 -9.875 1.5625 C-6.26198077 -0.40109741 -4.06004538 -0.51673305 0 0 Z " fill="#A09E9E" transform="translate(326,131)"/>
<path d="M0 0 C1.32 0 2.64 0 4 0 C4 5.94 4 11.88 4 18 C3.01 18.33 2.02 18.66 1 19 C0.34 18.67 -0.32 18.34 -1 18 C-1.02684312 15.18743719 -1.04676188 12.37512759 -1.0625 9.5625 C-1.07087891 8.76005859 -1.07925781 7.95761719 -1.08789062 7.13085938 C-1.0965143 5.08704779 -1.0522815 3.04316098 -1 1 C-0.67 0.67 -0.34 0.34 0 0 Z " fill="#9F9D9D" transform="translate(229,102)"/>
<path d="M0 0 C1.32 0 2.64 0 4 0 C4 5.94 4 11.88 4 18 C3.01 18.33 2.02 18.66 1 19 C0.34 18.67 -0.32 18.34 -1 18 C-1.02684312 15.18743719 -1.04676188 12.37512759 -1.0625 9.5625 C-1.07087891 8.76005859 -1.07925781 7.95761719 -1.08789062 7.13085938 C-1.0965143 5.08704779 -1.0522815 3.04316098 -1 1 C-0.67 0.67 -0.34 0.34 0 0 Z " fill="#A09E9D" transform="translate(316,102)"/>
<path d="M0 0 C1.65 0 3.3 0 5 0 C5 5.94 5 11.88 5 18 C3.35 18 1.7 18 0 18 C0 12.06 0 6.12 0 0 Z " fill="#A09E9E" transform="translate(263,131)"/>
<path d="M0 0 C1.65 0 3.3 0 5 0 C5 5.94 5 11.88 5 18 C3.35 18 1.7 18 0 18 C0 12.06 0 6.12 0 0 Z " fill="#9F9D9C" transform="translate(288,131)"/>
<path d="M0 0 C3.03555904 2.15684458 3.84989431 3.4746301 4.875 7.0625 C5 10 5 10 3 13 C2.67 11.02 2.34 9.04 2 7 C1.34 8.65 0.68 10.3 0 12 C-0.33 12 -0.66 12 -1 12 C-1.33 9.69 -1.66 7.38 -2 5 C-5.62885324 4.84850702 -5.62885324 4.84850702 -9 6 C-9 5.34 -9 4.68 -9 4 C-10.32 4.33 -11.64 4.66 -13 5 C-12.06788763 2.66971908 -11.30996602 1.24108468 -9.3125 -0.3125 C-5.88676201 -1.33096265 -3.44183926 -0.86045982 0 0 Z " fill="#A2A0A0" transform="translate(336,103)"/>
<path d="M0 0 C1.65 0 3.3 0 5 0 C5 5.94 5 11.88 5 18 C3.35 18 1.7 18 0 18 C0 12.06 0 6.12 0 0 Z " fill="#9F9C9C" transform="translate(353,74)"/>
<path d="M0 0 C2.475 0.495 2.475 0.495 5 1 C5 5.62 5 10.24 5 15 C7.97 15.495 7.97 15.495 11 16 C11 16.33 11 16.66 11 17 C6.39790775 17.17700355 4.21629134 17.10814567 0 15 C0 10.05 0 5.1 0 0 Z " fill="#939090" transform="translate(257,102)"/>
<path d="M0 0 C0.33 0 0.66 0 1 0 C1.66 2.97 2.32 5.94 3 9 C3.66 6.69 4.32 4.38 5 2 C5.33 2 5.66 2 6 2 C6.9802248 7.68839118 7.11948801 13.17294333 7.0625 18.9375 C7.05798828 19.81212891 7.05347656 20.68675781 7.04882812 21.58789062 C7.03714834 23.72529047 7.01921689 25.86265463 7 28 C6.67 28 6.34 28 6 28 C6 22.39 6 16.78 6 11 C5.34 11 4.68 11 4 11 C3.34 17.27 2.68 23.54 2 30 C1.67 30 1.34 30 1 30 C0.67 20.1 0.34 10.2 0 0 Z " fill="#BFE3F1" transform="translate(196,99)"/>
<path d="M0 0 C1.32 0 2.64 0 4 0 C4 5.94 4 11.88 4 18 C2.68 18 1.36 18 0 18 C0 12.06 0 6.12 0 0 Z " fill="#868382" transform="translate(233,45)"/>
<path d="M0 0 C3 1 3 1 4.6875 4.375 C6 8 6 8 6 11 C4.35 11 2.7 11 1 11 C1 9.68 1 8.36 1 7 C-1.97 7 -4.94 7 -8 7 C-8 5.68 -8 4.36 -8 3 C-5.69 3.33 -3.38 3.66 -1 4 C-0.67 2.68 -0.34 1.36 0 0 Z " fill="#83807F" transform="translate(371,81)"/>
<path d="M0 0 C1.65 0 3.3 0 5 0 C5.99 2.31 6.98 4.62 8 7 C5 7 5 7 3 6 C3 9.3 3 12.6 3 16 C2.01 16 1.02 16 0 16 C0 10.72 0 5.44 0 0 Z " fill="#6A6666" transform="translate(296,132)"/>
<path d="M0 0 C0.99 0 1.98 0 3 0 C3 5.28 3 10.56 3 16 C-2 15 -2 15 -3.8125 12.4375 C-4.204375 11.633125 -4.59625 10.82875 -5 10 C-3.68 9.67 -2.36 9.34 -1 9 C-0.67 6.03 -0.34 3.06 0 0 Z " fill="#6C6969" transform="translate(282,132)"/>
<path d="M0 0 C0.99 0 1.98 0 3 0 C3 5.28 3 10.56 3 16 C1.35 16 -0.3 16 -2 16 C-4 13 -4 13 -3.625 10.8125 C-3.41875 10.214375 -3.2125 9.61625 -3 9 C-2.01 9.33 -1.02 9.66 0 10 C0 6.7 0 3.4 0 0 Z " fill="#656261" transform="translate(308,132)"/>
<path d="M0 0 C0.66 0.33 1.32 0.66 2 1 C2 1.99 2 2.98 2 4 C5.465 3.505 5.465 3.505 9 3 C9 4.32 9 5.64 9 7 C6.03 7 3.06 7 0 7 C0 8.32 0 9.64 0 11 C-1.65 11 -3.3 11 -5 11 C-4.40138258 8.64828869 -3.73075648 6.3140622 -3 4 C-2.34 3.67 -1.68 3.34 -1 3 C-0.67 2.01 -0.34 1.02 0 0 Z " fill="#7E7B7A" transform="translate(257,81)"/>
<path d="M0 0 C0.33 0 0.66 0 1 0 C0.99214478 0.95869995 0.99214478 0.95869995 0.98413086 1.93676758 C0.9630573 4.89533463 0.9502448 7.85388579 0.9375 10.8125 C0.92912109 11.81732422 0.92074219 12.82214844 0.91210938 13.85742188 C0.89033681 20.62868824 1.2630169 27.26910926 2 34 C0.68 33.67 -0.64 33.34 -2 33 C-1.01 34.32 -0.02 35.64 1 37 C0.34 37 -0.32 37 -1 37 C-1.33 38.32 -1.66 39.64 -2 41 C-4.28571429 32.57142857 -4.28571429 32.57142857 -4 28 C-3.34 28.99 -2.68 29.98 -2 31 C-0.99123519 25.22324528 -0.91396816 19.66696642 -1 13.8125 C-1.02558753 12.04823963 -1.04659279 10.28390546 -1.0625 8.51953125 C-1.07410156 7.74714111 -1.08570313 6.97475098 -1.09765625 6.17895508 C-0.99953513 3.98962759 -0.60670363 2.10047246 0 0 Z " fill="#D1E9F3" transform="translate(30,103)"/>
<path d="M0 0 C0.66 0.33 1.32 0.66 2 1 C2 1.66 2 2.32 2 3 C2.66 3.66 3.32 4.32 4 5 C3.6875 7.25 3.6875 7.25 3 10 C2.66055205 11.99897128 2.32578384 13.99875639 2 16 C1.34 15.01 0.68 14.02 0 13 C-1.64694485 11.31384218 -3.31126121 9.64429829 -5 8 C-3.8141763 4.62496331 -2.72426311 2.35277269 0 0 Z " fill="#5DBBE3" transform="translate(106,61)"/>
<path d="M0 0 C1.32 0.33 2.64 0.66 4 1 C2.35 5.29 0.7 9.58 -1 14 C-1.33 12.68 -1.66 11.36 -2 10 C-2.66 10 -3.32 10 -4 10 C-4 10.66 -4 11.32 -4 12 C-4.99 11.67 -5.98 11.34 -7 11 C-6.67 9.68 -6.34 8.36 -6 7 C-5.67 7.66 -5.34 8.32 -5 9 C-4.72285156 8.43410156 -4.44570312 7.86820313 -4.16015625 7.28515625 C-3.79792969 6.55167969 -3.43570313 5.81820312 -3.0625 5.0625 C-2.70285156 4.33160156 -2.34320313 3.60070313 -1.97265625 2.84765625 C-1 1 -1 1 0 0 Z " fill="#A6A4A4" transform="translate(228,45)"/>
<path d="M0 0 C0.99 0.33 1.98 0.66 3 1 C3.66 4.3 4.32 7.6 5 11 C4.01 11.495 4.01 11.495 3 12 C3 11.34 3 10.68 3 10 C2.195625 10.020625 1.39125 10.04125 0.5625 10.0625 C-2 10 -2 10 -3 9 C-2.94921875 7.1875 -2.94921875 7.1875 -2.6875 5 C-2.60886719 4.278125 -2.53023438 3.55625 -2.44921875 2.8125 C-2.30097656 2.214375 -2.15273438 1.61625 -2 1 C-1.34 0.67 -0.68 0.34 0 0 Z " fill="#868382" transform="translate(293,102)"/>
<path d="M0 0 C2.97 0 5.94 0 9 0 C9 0.66 9 1.32 9 2 C3.25 2.125 3.25 2.125 1 1 C1.14168137 2.43791516 1.28851043 3.8753237 1.4375 5.3125 C1.51871094 6.11300781 1.59992188 6.91351563 1.68359375 7.73828125 C1.95265693 10.16087179 1.95265693 10.16087179 3 13 C4.98 13 6.96 13 9 13 C9 13.99 9 14.98 9 16 C6.03 16 3.06 16 0 16 C0 10.72 0 5.44 0 0 Z " fill="#646160" transform="translate(328,75)"/>
<path d="M0 0 C2.97 0 5.94 0 9 0 C8.75 3.375 8.75 3.375 8 7 C5.9375 8.4375 5.9375 8.4375 4 9 C4.33 8.01 4.66 7.02 5 6 C2.69 6 0.38 6 -2 6 C-1.34 5.34 -0.68 4.68 0 4 C0 2.68 0 1.36 0 0 Z " fill="#BFBEBE" transform="translate(322,139)"/>
<path d="M0 0 C2.60691842 2.60691842 2.70416963 4.37607794 3 8 C2.01 9.485 2.01 9.485 1 11 C0.34 12.32 -0.32 13.64 -1 15 C-2.485 10.05 -2.485 10.05 -4 5 C-10.6 4.67 -17.2 4.34 -24 4 C-24 3.67 -24 3.34 -24 3 C-16.41 2.67 -8.82 2.34 -1 2 C-1.33 3.65 -1.66 5.3 -2 7 C-1.34 7 -0.68 7 0 7 C0 4.69 0 2.38 0 0 Z " fill="#BAE1F1" transform="translate(196,84)"/>
<path d="M0 0 C3.63 0 7.26 0 11 0 C9.68 0.99 8.36 1.98 7 3 C7 4.32 7 5.64 7 7 C2.65535464 6.39174965 -1.67551867 5.73832608 -6 5 C-6 4.67 -6 4.34 -6 4 C-4.35 4 -2.7 4 -1 4 C-0.67 2.68 -0.34 1.36 0 0 Z " fill="#41B0DD" transform="translate(130,158)"/>
<path d="M0 0 C0.66 0 1.32 0 2 0 C2.0270817 2.72923388 2.04687847 5.45819637 2.0625 8.1875 C2.07087891 8.95642578 2.07925781 9.72535156 2.08789062 10.51757812 C2.10491934 14.48526789 1.98604115 18.12571234 1 22 C0.67 22 0.34 22 0 22 C-0.144375 21.2575 -0.28875 20.515 -0.4375 19.75 C-0.92635254 17.13632803 -0.92635254 17.13632803 -1.55859375 15.1796875 C-2.10941439 12.45970592 -1.90005424 10.13297625 -1.625 7.375 C-1.53476563 6.41335937 -1.44453125 5.45171875 -1.3515625 4.4609375 C-1 2 -1 2 0 0 Z " fill="#42AFDC" transform="translate(200,110)"/>
<path d="M0 0 C2.475 0.495 2.475 0.495 5 1 C5.33 2.32 5.66 3.64 6 5 C5.01 5 4.02 5 3 5 C3 8.3 3 11.6 3 15 C2.01 15 1.02 15 0 15 C0 10.05 0 5.1 0 0 Z " fill="#635F5F" transform="translate(343,104)"/>
<path d="M0 0 C1.60101563 -0.00580078 1.60101563 -0.00580078 3.234375 -0.01171875 C8.26129735 -0.00546636 13.06335054 0.04510793 18 1.125 C18 1.455 18 1.785 18 2.125 C13.545 2.62 13.545 2.62 9 3.125 C9 2.465 9 1.805 9 1.125 C2.565 1.62 2.565 1.62 -4 2.125 C-4 2.455 -4 2.785 -4 3.125 C-9.94 3.125 -15.88 3.125 -22 3.125 C-14.86018668 -0.44490666 -7.82620497 -0.02835582 0 0 Z " fill="#B0DCEF" transform="translate(114,28.875)"/>
<path d="M0 0 C0.66 0 1.32 0 2 0 C1.67 1.98 1.34 3.96 1 6 C2.65 6 4.3 6 6 6 C6 6.66 6 7.32 6 8 C4.02 8 2.04 8 0 8 C-0.33 9.32 -0.66 10.64 -1 12 C-2.32 12 -3.64 12 -5 12 C-4.53981898 7.85837086 -4.14493915 5.75182176 -1 3 C-0.67 2.01 -0.34 1.02 0 0 Z " fill="#817E7D" transform="translate(249,137)"/>
<path d="M0 0 C0.99 0 1.98 0 3 0 C3 4.29 3 8.58 3 13 C4.65 13 6.3 13 8 13 C8 13.66 8 14.32 8 15 C5.36 15 2.72 15 0 15 C0 10.05 0 5.1 0 0 Z " fill="#5A5756" transform="translate(275,104)"/>
<path d="M0 0 C0.33 0 0.66 0 1 0 C1.33 2.64 1.66 5.28 2 8 C1.67 8 1.34 8 1 8 C0.67 17.24 0.34 26.48 0 36 C-0.33 36 -0.66 36 -1 36 C-2.36243021 23.64081169 -2.21478305 12.26040614 0 0 Z " fill="#B4DDEE" transform="translate(26,95)"/>
<path d="M0 0 C0.928125 0.2784375 0.928125 0.2784375 1.875 0.5625 C4.04160178 1.23686176 4.04160178 1.23686176 6 0 C6.67119549 1.4562545 7.33681807 2.91507867 8 4.375 C8.556875 5.59316406 8.556875 5.59316406 9.125 6.8359375 C10 9 10 9 10 11 C8.35 11 6.7 11 5 11 C4.67 10.34 4.34 9.68 4 9 C1.69 9 -0.62 9 -3 9 C-3 8.34 -3 7.68 -3 7 C-0.03 7 2.94 7 6 7 C6 5.68 6 4.36 6 3 C3.69 3.33 1.38 3.66 -1 4 C-0.67 3.34 -0.34 2.68 0 2 C0 1.34 0 0.68 0 0 Z " fill="#BFBEBE" transform="translate(260,81)"/>
<path d="M0 0 C2.97903734 2.97903734 4 5.80285329 4 10 C2.35 9.67 0.7 9.34 -1 9 C-1 8.34 -1 7.68 -1 7 C-3.31 7 -5.62 7 -8 7 C-8 6.67 -8 6.34 -8 6 C-6.02 6 -4.04 6 -2 6 C-2 5.34 -2 4.68 -2 4 C-3.65 4 -5.3 4 -7 4 C-6.67 3.34 -6.34 2.68 -6 2 C-4.34178227 1.62690101 -2.67422986 1.29299023 -1 1 C-0.67 0.67 -0.34 0.34 0 0 Z " fill="#A3A1A1" transform="translate(257,139)"/>
<path d="M0 0 C1.8272911 2.74093665 2.93698178 5.13825324 4.125 8.1875 C4.47820312 9.08855469 4.83140625 9.98960938 5.1953125 10.91796875 C5.46085937 11.60503906 5.72640625 12.29210937 6 13 C4.68 13.33 3.36 13.66 2 14 C1.34 12.68 0.68 11.36 0 10 C-2.31 10 -4.62 10 -7 10 C-7 9.67 -7 9.34 -7 9 C-5.02 8.67 -3.04 8.34 -1 8 C-0.17361624 5.10765685 0 3.11257569 0 0 Z " fill="#A8A6A6" transform="translate(297,107)"/>
<path d="M0 0 C1.23556641 0.01740234 1.23556641 0.01740234 2.49609375 0.03515625 C3.32238281 0.04417969 4.14867188 0.05320313 5 0.0625 C5.63808594 0.07410156 6.27617188 0.08570313 6.93359375 0.09765625 C6.43561005 3.83253402 6.05867619 5.9100326 3.93359375 9.09765625 C3.93359375 7.11765625 3.93359375 5.13765625 3.93359375 3.09765625 C2.28359375 3.09765625 0.63359375 3.09765625 -1.06640625 3.09765625 C-1.39640625 3.75765625 -1.72640625 4.41765625 -2.06640625 5.09765625 C-2.72640625 5.09765625 -3.38640625 5.09765625 -4.06640625 5.09765625 C-4.39640625 6.41765625 -4.72640625 7.73765625 -5.06640625 9.09765625 C-5.39640625 8.43765625 -5.72640625 7.77765625 -6.06640625 7.09765625 C-2.9421305 0.13904208 -2.9421305 0.13904208 0 0 Z " fill="#A9D9EC" transform="translate(78.06640625,139.90234375)"/>
<path d="M0 0 C1.98 0 3.96 0 6 0 C6 0.66 6 1.32 6 2 C5.01 2.33 4.02 2.66 3 3 C2.26676204 5.01508358 2.26676204 5.01508358 2 7 C2.99 7.33 3.98 7.66 5 8 C4.67 8.66 4.34 9.32 4 10 C3.34 10 2.68 10 2 10 C2 11.98 2 13.96 2 16 C1.34 16 0.68 16 0 16 C0 10.72 0 5.44 0 0 Z " fill="#5E5A59" transform="translate(230,132)"/>
<path d="M0 0 C3.3 0 6.6 0 10 0 C10 0.66 10 1.32 10 2 C8.68 2 7.36 2 6 2 C6 6.29 6 10.58 6 15 C5.34 15 4.68 15 4 15 C3.67 11.04 3.34 7.08 3 3 C2.01 2.67 1.02 2.34 0 2 C0 1.34 0 0.68 0 0 Z " fill="#5B5857" transform="translate(240,47)"/>
<path d="M0 0 C2.475 0.495 2.475 0.495 5 1 C5.05406122 2.93719378 5.09282025 4.87481921 5.125 6.8125 C5.14820313 7.89144531 5.17140625 8.97039062 5.1953125 10.08203125 C5 13 5 13 3 16 C3 11.38 3 6.76 3 2 C2.34 2 1.68 2 1 2 C1 5.63 1 9.26 1 13 C0.67 13 0.34 13 0 13 C0 8.71 0 4.42 0 0 Z " fill="#C4C4C3" transform="translate(267,102)"/>
<path d="M0 0 C0.66 0.99 1.32 1.98 2 3 C1.67 3.99 1.34 4.98 1 6 C-1.91482778 6.80967438 -3.46113217 7.21845993 -6.3125 6.0625 C-6.869375 5.711875 -7.42625 5.36125 -8 5 C-7.67 3.68 -7.34 2.36 -7 1 C-4.69 1.33 -2.38 1.66 0 2 C0 1.34 0 0.68 0 0 Z " fill="#92908F" transform="translate(223,114)"/>
<path d="M0 0 C5.75 -0.125 5.75 -0.125 8 1 C7.34 2.32 6.68 3.64 6 5 C4.68 4.67 3.36 4.34 2 4 C2.33 4.99 2.66 5.98 3 7 C2.01 7.33 1.02 7.66 0 8 C-0.33 7.67 -0.66 7.34 -1 7 C-0.71269945 4.66055264 -0.38063221 2.3260857 0 0 Z " fill="#72706F" transform="translate(287,74)"/>
<path d="M0 0 C4.59161191 0.69631776 4.59161191 0.69631776 8.875 -0.4375 C8.545 0.8825 8.215 2.2025 7.875 3.5625 C1.50940427 3.07123071 -4.81764693 2.56594253 -11.125 1.5625 C-7.37472766 -0.91569504 -4.36282945 -0.44174787 0 0 Z " fill="#CAE5F0" transform="translate(101.125,89.4375)"/>
<path d="M0 0 C0.33 0 0.66 0 1 0 C1.05399736 1.45792884 1.09279177 2.91642712 1.125 4.375 C1.14820313 5.18710938 1.17140625 5.99921875 1.1953125 6.8359375 C1 9 1 9 -1 11 C-3.1640625 11.1953125 -3.1640625 11.1953125 -5.625 11.125 C-6.44226563 11.10695313 -7.25953125 11.08890625 -8.1015625 11.0703125 C-8.72804688 11.04710938 -9.35453125 11.02390625 -10 11 C-9.67 10.34 -9.34 9.68 -9 9 C-7.35 9 -5.7 9 -4 9 C-4 8.34 -4 7.68 -4 7 C-3.34 7 -2.68 7 -2 7 C-1.34 4.69 -0.68 2.38 0 0 Z " fill="#696665" transform="translate(338,108)"/>
<path d="M0 0 C0.66 0.33 1.32 0.66 2 1 C2 2.65 2 4.3 2 6 C4.31 6.33 6.62 6.66 9 7 C9 7.99 9 8.98 9 10 C8.01 9.34 7.02 8.68 6 8 C6.33 9.32 6.66 10.64 7 12 C4.36 10.35 1.72 8.7 -1 7 C-0.67 4.69 -0.34 2.38 0 0 Z " fill="#A2A1A0" transform="translate(285,75)"/>
<path d="M0 0 C0.66 0 1.32 0 2 0 C2.33 3.96 2.66 7.92 3 12 C4.32 12.33 5.64 12.66 7 13 C7 13.66 7 14.32 7 15 C4.69 15 2.38 15 0 15 C0 10.05 0 5.1 0 0 Z " fill="#5A5757" transform="translate(271,47)"/>
<path d="M0 0 C0.99 0 1.98 0 3 0 C3 0.66 3 1.32 3 2 C4.65 2.33 6.3 2.66 8 3 C8 3.33 8 3.66 8 4 C5.69 4 3.38 4 1 4 C1 5.32 1 6.64 1 8 C-0.65 8 -2.3 8 -4 8 C-3.625 6.0625 -3.625 6.0625 -3 4 C-2.34 3.67 -1.68 3.34 -1 3 C-0.67 2.01 -0.34 1.02 0 0 Z " fill="#767473" transform="translate(254,55)"/>
<path d="M0 0 C1.90401138 1.90401138 2.93520439 3.33425686 3.19921875 6.046875 C3.1886578 8.03233273 3.09915043 10.0169914 3 12 C1.68 11.67 0.36 11.34 -1 11 C-1.02688151 9.35425434 -1.04634123 7.70838587 -1.0625 6.0625 C-1.07410156 5.14597656 -1.08570313 4.22945313 -1.09765625 3.28515625 C-1 1 -1 1 0 0 Z " fill="#8C8A89" transform="translate(252,109)"/>
<path d="M0 0 C1.32 0 2.64 0 4 0 C4 1.98 4 3.96 4 6 C3.01 6 2.02 6 1 6 C0.67 6.99 0.34 7.98 0 9 C-0.66 8.67 -1.32 8.34 -2 8 C-1.125 2.25 -1.125 2.25 0 0 Z " fill="#858383" transform="translate(366,74)"/>
<path d="M0 0 C0.66 0.33 1.32 0.66 2 1 C2 1.66 2 2.32 2 3 C1.34 3 0.68 3 0 3 C0 3.66 0 4.32 0 5 C1.32 5 2.64 5 4 5 C4 5.66 4 6.32 4 7 C3.34 7 2.68 7 2 7 C2 7.66 2 8.32 2 9 C2.99 8.67 3.98 8.34 5 8 C5 8.66 5 9.32 5 10 C3.68 10 2.36 10 1 10 C1 9.34 1 8.68 1 8 C0.01 8 -0.98 8 -2 8 C-2.33 9.32 -2.66 10.64 -3 12 C-4.21386936 8.35839192 -3.6674695 7.66834531 -2.0625 4.3125 C-1.49208984 3.10013672 -1.49208984 3.10013672 -0.91015625 1.86328125 C-0.60980469 1.24839844 -0.30945313 0.63351563 0 0 Z " fill="#B3B2B2" transform="translate(256,47)"/>
<path d="M0 0 C0.66 0 1.32 0 2 0 C2 1.32 2 2.64 2 4 C2.66 4 3.32 4 4 4 C3.67 5.98 3.34 7.96 3 10 C1.68 10 0.36 10 -1 10 C-2.23076923 4.58461538 -2.23076923 4.58461538 -1.0625 1.625 C-0.5365625 0.820625 -0.5365625 0.820625 0 0 Z " fill="#A7A6A6" transform="translate(244,110)"/>
<path d="M0 0 C0.99 0.33 1.98 0.66 3 1 C2.34 1 1.68 1 1 1 C1 2.98 1 4.96 1 7 C1.66 7 2.32 7 3 7 C3 9.97 3 12.94 3 16 C2.01 16 1.02 16 0 16 C0 10.72 0 5.44 0 0 Z " fill="#595554" transform="translate(235,75)"/>
<path d="M0 0 C5.28 0.99 10.56 1.98 16 3 C11.70639731 5.14680135 10.35222258 5.12524159 5.75 4.625 C4.67234375 4.51414062 3.5946875 4.40328125 2.484375 4.2890625 C1.25460938 4.14597656 1.25460938 4.14597656 0 4 C0 2.68 0 1.36 0 0 Z " fill="#BEE1EF" transform="translate(68,77)"/>
<path d="M0 0 C2.475 0.495 2.475 0.495 5 1 C5.66 2.98 6.32 4.96 7 7 C6.34 7 5.68 7 5 7 C4.01 8.485 4.01 8.485 3 10 C2.01 6.7 1.02 3.4 0 0 Z " fill="#ACAAA9" transform="translate(214,45)"/>
<path d="M0 0 C2.79872437 2.52788007 4.45773019 4.20411134 5 8 C2.6875 8.25 2.6875 8.25 0 8 C-1.8125 6 -1.8125 6 -3 4 C-2.67 3.34 -2.34 2.68 -2 2 C-1.34 2 -0.68 2 0 2 C0 1.34 0 0.68 0 0 Z " fill="#ABAAA9" transform="translate(237,141)"/>
<path d="M0 0 C0.33 1.32 0.66 2.64 1 4 C4.63 4.66 8.26 5.32 12 6 C12 6.66 12 7.32 12 8 C8.7 7.67 5.4 7.34 2 7 C2 6.34 2 5.68 2 5 C1.01 5 0.02 5 -1 5 C-0.67 3.35 -0.34 1.7 0 0 Z " fill="#99D2E9" transform="translate(126,150)"/>
<path d="M0 0 C0.99 1.485 0.99 1.485 2 3 C2.66 2.34 3.32 1.68 4 1 C4.66 1.33 5.32 1.66 6 2 C5.67 3.32 5.34 4.64 5 6 C4.01 5.67 3.02 5.34 2 5 C2.99 6.32 3.98 7.64 5 9 C4.34 9 3.68 9 3 9 C2.67 10.32 2.34 11.64 2 13 C-0.28571429 4.57142857 -0.28571429 4.57142857 0 0 Z " fill="#9DD4EC" transform="translate(26,131)"/>
<path d="M0 0 C2.97 0.495 2.97 0.495 6 1 C5.01 2.485 5.01 2.485 4 4 C4.99 4.66 5.98 5.32 7 6 C1.375 6.25 1.375 6.25 -2 4 C-1.34 2.68 -0.68 1.36 0 0 Z " fill="#B5B4B3" transform="translate(285,86)"/>
<path d="M0 0 C1.32 0.66 2.64 1.32 4 2 C3.67 3.65 3.34 5.3 3 7 C1.35 7 -0.3 7 -2 7 C-2 6.34 -2 5.68 -2 5 C-1.34 5 -0.68 5 0 5 C-0.2784375 4.0409375 -0.2784375 4.0409375 -0.5625 3.0625 C-0.7790625 2.0415625 -0.7790625 2.0415625 -1 1 C-0.67 0.67 -0.34 0.34 0 0 Z " fill="#827F7F" transform="translate(258,45)"/>
<path d="M0 0 C0.99 0 1.98 0 3 0 C3 2.64 3 5.28 3 8 C2.01 7.34 1.02 6.68 0 6 C-0.66 6.66 -1.32 7.32 -2 8 C-1.125 1.125 -1.125 1.125 0 0 Z " fill="#989696" transform="translate(315,134)"/>
<path d="M0 0 C0.33 0 0.66 0 1 0 C1.12375 0.969375 1.2475 1.93875 1.375 2.9375 C1.684375 4.4534375 1.684375 4.4534375 2 6 C2.66 6.33 3.32 6.66 4 7 C4.33 6.34 4.66 5.68 5 5 C4.25 11.625 4.25 11.625 2 15 C1.67 12.69 1.34 10.38 1 8 C0.01 8.495 0.01 8.495 -1 9 C-0.67 6.03 -0.34 3.06 0 0 Z " fill="#AEDAED" transform="translate(196,130)"/>
<path d="M0 0 C0.6875 2.0625 0.6875 2.0625 1 4 C-0.65 4 -2.3 4 -4 4 C-4.33 3.01 -4.66 2.02 -5 1 C-7.31 1 -9.62 1 -12 1 C-12 0.67 -12 0.34 -12 0 C-10.56359829 -0.19573608 -9.12580496 -0.38127816 -7.6875 -0.5625 C-6.88699219 -0.66691406 -6.08648437 -0.77132812 -5.26171875 -0.87890625 C-3 -1 -3 -1 0 0 Z " fill="#BEBDBD" transform="translate(232,88)"/>
<path d="M0 0 C0.91007812 0.10183594 1.82015625 0.20367187 2.7578125 0.30859375 C3.45648438 0.39238281 4.15515625 0.47617188 4.875 0.5625 C4.875 0.8925 4.875 1.2225 4.875 1.5625 C2.565 1.5625 0.255 1.5625 -2.125 1.5625 C-2.455 2.5525 -2.785 3.5425 -3.125 4.5625 C-4.775 4.5625 -6.425 4.5625 -8.125 4.5625 C-7.75 2.625 -7.75 2.625 -7.125 0.5625 C-4.50184968 -0.74907516 -2.89466564 -0.33399988 0 0 Z " fill="#BFBEBE" transform="translate(367.125,87.4375)"/>
<path d="M0 0 C2 2 2 2 2.3125 5.4375 C1.9773321 9.25841401 1.71566987 9.65692863 -1 12 C-1.22162329 10.37675914 -1.42689803 8.751279 -1.625 7.125 C-1.74101562 6.22007813 -1.85703125 5.31515625 -1.9765625 4.3828125 C-1.98429688 3.59648438 -1.99203125 2.81015625 -2 2 C-1.34 1.34 -0.68 0.68 0 0 Z " fill="#44AFDD" transform="translate(199,98)"/>
<path d="M0 0 C3.625 0.375 3.625 0.375 7 1 C6.67 2.32 6.34 3.64 6 5 C4.35 5 2.7 5 1 5 C1.66 4.67 2.32 4.34 3 4 C3 3.34 3 2.68 3 2 C1.35 2 -0.3 2 -2 2 C-1.34 1.34 -0.68 0.68 0 0 Z " fill="#B8B7B6" transform="translate(219,102)"/>
<path d="M0 0 C0.66 0.33 1.32 0.66 2 1 C1.2884375 2.3921875 1.2884375 2.3921875 0.5625 3.8125 C-1.04488875 6.91196237 -1.04488875 6.91196237 -2 10 C-2.99 9.34 -3.98 8.68 -5 8 C-3.8141763 4.62496331 -2.72426311 2.35277269 0 0 Z " fill="#9DD3E8" transform="translate(106,61)"/>
<path d="M0 0 C1 4 1 4 0 6 C0.99 5.67 1.98 5.34 3 5 C3 6.98 3 8.96 3 11 C0.525 10.01 0.525 10.01 -2 9 C-1.34 6.03 -0.68 3.06 0 0 Z " fill="#7EC8E7" transform="translate(29,86)"/>
<path d="M0 0 C0.66 0 1.32 0 2 0 C3.38232443 1.62626404 4.71937515 3.2925002 6 5 C3.69 5 1.38 5 -1 5 C-1 1 -1 1 0 0 Z " fill="#939190" transform="translate(341,86)"/>
<path d="M0 0 C1.98 0 3.96 0 6 0 C6.33 0.99 6.66 1.98 7 3 C5 5 5 5 1.875 5.125 C0.451875 5.063125 0.451875 5.063125 -1 5 C0.32 4.34 1.64 3.68 3 3 C2.01 2.01 1.02 1.02 0 0 Z " fill="#AAA9A8" transform="translate(343,87)"/>
<path d="M0 0 C1.65 1.65 3.3 3.3 5 5 C4 7 4 7 1 9 C0 2.25 0 2.25 0 0 Z " fill="#9E9C9C" transform="translate(240,77)"/>
<path d="M0 0 C5.75 -0.125 5.75 -0.125 8 1 C7.34 2.32 6.68 3.64 6 5 C4.68 4.34 3.36 3.68 2 3 C2.66 2.67 3.32 2.34 4 2 C2.68 1.34 1.36 0.68 0 0 Z " fill="#BDBCBB" transform="translate(343,74)"/>
<path d="M0 0 C5.75 -0.125 5.75 -0.125 8 1 C7.34 2.32 6.68 3.64 6 5 C4.68 4.34 3.36 3.68 2 3 C2.66 2.67 3.32 2.34 4 2 C2.68 1.34 1.36 0.68 0 0 Z " fill="#BCBBBB" transform="translate(287,74)"/>
<path d="M0 0 C1.98 1.65 3.96 3.3 6 5 C5.01 5.66 4.02 6.32 3 7 C2.34 6.67 1.68 6.34 1 6 C1 5.34 1 4.68 1 4 C0.34 3.67 -0.32 3.34 -1 3 C-0.67 2.01 -0.34 1.02 0 0 Z " fill="#7EC7E6" transform="translate(173,51)"/>
<path d="M0 0 C6.93 0.495 6.93 0.495 14 1 C14 1.33 14 1.66 14 2 C8.06 2.495 8.06 2.495 2 3 C2 2.34 2 1.68 2 1 C1.34 0.67 0.68 0.34 0 0 Z " fill="#41AFDA" transform="translate(115,46)"/>
<path d="M0 0 C1.65 0 3.3 0 5 0 C5 0.66 5 1.32 5 2 C1.53846154 5 1.53846154 5 -1 5 C-0.67 3.35 -0.34 1.7 0 0 Z " fill="#646160" transform="translate(217,104)"/>
<path d="M0 0 C2.31 0 4.62 0 7 0 C7 1.32 7 2.64 7 4 C6.34 4 5.68 4 5 4 C5 3.34 5 2.68 5 2 C3.35 2 1.7 2 0 2 C0 1.34 0 0.68 0 0 Z " fill="#5B5857" transform="translate(323,140)"/>
<path d="M0 0 C0.66 0.33 1.32 0.66 2 1 C1.25 2.9375 1.25 2.9375 0 5 C-2.125 5.75 -2.125 5.75 -4 6 C-2.84826645 3.53199953 -1.95216435 1.95216435 0 0 Z " fill="#91CFEB" transform="translate(120,142)"/>
<path d="M0 0 C1.5 1.375 1.5 1.375 3 3 C3 3.66 3 4.32 3 5 C1.68 5.33 0.36 5.66 -1 6 C-1.042721 4.33388095 -1.04063832 2.66617115 -1 1 C-0.67 0.67 -0.34 0.34 0 0 Z " fill="#767272" transform="translate(315,139)"/>
</svg>
